{"title":"Lucky.Bastard.2013.HDRiP.AC3-2.0.XviD-AXED","uid":8352133,"size":1461515443,"categoryP":"video","categoryS":"movies","magnet":"?xt=urn:btih:ca74c8b3ea8bf51f1f8b1145ee6a5261b15c5ded&amp;dn=Lucky.Bastard.2013.HDRiP.AC3-2.0.XviD-AXED&amp;tr=udp%3A%2F%2Ftracker.openbittorrent.com%3A80&amp;tr=udp%3A%2F%2Fopen.demonii.com%3A1337&amp;tr=udp%3A%2F%2Ftracker.coppersurfer.tk%3A6969&amp;tr=udp%3A%2F%2Fexodus.desync.com%3A6969","seeders":1,"leechers":0,"uploader":"sceneline","files":5,"time":1365371206,"description":"-\n &lt;a href=&quot;\nhttp://www.Speed.&quot; rel=&quot;nofollow&quot; target=&quot;_NEW&quot;&gt;\nhttp://www.Speed.&lt;/a&gt; Cd       the fast  and The Hottest Private Tracker on the net &lt;a href=&quot;\nhttp://www.Speed.&quot; rel=&quot;nofollow&quot; target=&quot;_NEW&quot;&gt;\nhttp://www.Speed.&lt;/a&gt; Cd\n\nPlease Seed back to make the speed Faster!!\n ............ NFO .............\n-\n &lt;a href=&quot;\nhttp://www.Speed.&quot; rel=&quot;nofollow&quot; target=&quot;_NEW&quot;&gt;\nhttp://www.Speed.&lt;/a&gt; Cd(  ___  )|     /|(  ____ (  __   \n| (   ) |(    / )| (    /| (    )\n| (___) |  (_) / | (__    | |   ) |\n|  ___  |  ) _ (  |  __)   | |   | |\n| (   ) | / ( )  | (      | |   ) |\n| )   ( |( /    )| (____/| (__/  )\n|/     ||/     |(_______/(______/ \n  _    _    _    _    _    _    _    _  \n /   /   /   /   /   /   /   /  \n( p )( r )( e )( s )( e )( n )( t )( s )\n _/  _/  _/  _/  _/  _/  _/  _/\n \nLucky.Bastard.2013.HDRiP.AC3-2.0.XviD-AXED\n\nPOSTER: \n[IMG]http://img803.imageshack.us/img803/9423/luckybastardposter.jpg[/IMG]\n\nIMDB:  &lt;a href=&quot;\nhttp://www.imdb.com/title/tt2417854&quot; rel=&quot;nofollow&quot; target=&quot;_NEW&quot;&gt;\nhttp://www.imdb.com/title/tt2417854&lt;/a&gt;\n\nPLOT INFO:\nLucky Bastard is a &quot;found footage&quot; thriller about a porn website run by Mike (Don McManus) that invites fans to have sex with porn stars. Jay Paulson plays Dave, an eager young fan given a ...\n\nMEDIAINFO:\nGeneral\nComplete name                            : Lucky.Bastard.2013.HDRiP.AC3-2.0.XviD-AXED.avi\nFormat                                   : AVI\nFormat/Info                              : Audio Video Interleave\nFile size                                : 1.35 GiB\nDuration                                 : 1h 33mn\nOverall bit rate                         : 2 052 Kbps\n\nVideo\nID                                       : 0\nFormat                                   : MPEG-4 Visual\nFormat profile                           : Advanced Simple@L5\nFormat settings, BVOP                    : 2\nFormat settings, QPel                    : No\nFormat settings, GMC                     : No warppoints\nFormat settings, Matrix                  : Default (H.263)\nMuxing mode                              : Packed bitstream\nCodec ID                                 : XVID\nCodec ID/Hint                            : XviD\nDuration                                 : 1h 33mn\nBit rate                                 : 1 851 Kbps\nWidth                                    : 720 pixels\nHeight                                   : 400 pixels\nDisplay aspect ratio                     : 16:9\nFrame rate                               : 29.970 fps\nColor space                              : YUV\nChroma subsampling                       : 4:2:0\nBit depth                                : 8 bits\nScan type                                : Progressive\nCompression mode                         : Lossy\nBits/(Pixel*Frame)                       : 0.214\nStream size                              : 1.21 GiB (90%)\nWriting library                          : XviD 64\n\nAudio\nID                                       : 1\nFormat                                   : AC-3\nFormat/Info                              : Audio Coding 3\nMode extension                           : CM (complete main)\nFormat settings, Endianness              : Big\nCodec ID                                 : 2000\nDuration                                 : 1h 33mn\nBit rate mode                            : Constant\nBit rate                                 : 192 Kbps\nChannel(s)                               : 2 channels\nChannel positions                        : Front: L R\nSampling rate                            : 44.1 KHz\nBit depth                                : 16 bits\nCompression mode                         : Lossy\nStream size                              : 129 MiB (9%)\nAlignment                                : Aligned on interleaves\nInterleave, duration                     : 70 ms (2.09 video frames)\nInterleave, preload duration             : 208 ms\nTitle                                    : luckybastard\n\n\n\n\nSOURCE: \n720p Super Secret Source\n\n\nNOTES: \nEnjoy this new found footage thriller that takes you inside the world of the last days of a porn site.  The film hit limited theaters on April 5.\n\n\nSCREENS:\n[IMG]http://imageshack.us/a/img703/9647/scrncp00009h.png[/IMG]\n[IMG]http://imageshack.us/a/img22/5965/scrncp00013.png[/IMG]\n[IMG]http://imageshack.us/a/img69/9994/scrncp00014d.png[/IMG]\n[IMG]http://imageshack.us/a/img826/9500/scrncp00016.png[/IMG]\n[IMG]http://imageshack.us/a/img607/6585/scrncp00020.png[/IMG]\n\n","torrent":{"xt":"urn:btih:ca74c8b3ea8bf51f1f8b1145ee6a5261b15c5ded","amp;dn":"Lucky.Bastard.2013.HDRiP.AC3-2.0.XviD-AXED","amp;tr":["udp%3A%2F%2Ftracker.openbittorrent.com%3A80","udp%3A%2F%2Fopen.demonii.com%3A1337","udp%3A%2F%2Ftracker.coppersurfer.tk%3A6969","udp%3A%2F%2Fexodus.desync.com%3A6969"],"infoHash":"ca74c8b3ea8bf51f1f8b1145ee6a5261b15c5ded","infoHashBuffer":{"type":"Buffer","data":[202,116,200,179,234,139,245,31,31,139,17,69,238,106,82,97,177,92,93,237]},"announce":[],"urlList":[]}}